%TF.GenerationSoftware,KiCad,Pcbnew,10.0.3*%
%TF.CreationDate,2026-08-21T19:47:56+02:00*%
%TF.ProjectId,p2000t-pico-web-interface,70323030-3074-42d7-9069-636f2d776562,rev3*%
%TF.SameCoordinates,Original*%
%TF.FileFunction,Profile,NP*%
%FSLAX46Y46*%
G04 Gerber Fmt 4.6, Leading zero omitted, Abs format (unit mm)*
G04 Created by KiCad (PCBNEW 10.0.3) date 2026-08-21 19:47:56*
%MOMM*%
%LPD*%
G01*
G04 APERTURE LIST*
%TA.AperFunction,Profile*%
%ADD10C,0.100000*%
%TD*%
%TA.AperFunction,Profile*%
%ADD11C,0.050000*%
%TD*%
G04 APERTURE END LIST*
D10*
X21590000Y-37324000D02*
X35776000Y-37324000D01*
D11*
X21590000Y-39280000D02*
X21590000Y-37324000D01*
X21590000Y-39280000D02*
G75*
G02*
X21590000Y-48280000I0J-4500000D01*
G01*
X21590000Y-82780000D02*
X21590000Y-48280000D01*
X21590000Y-82780000D02*
X21590000Y-87280000D01*
X21590000Y-87780000D02*
X21590000Y-87280000D01*
X21590000Y-89280000D02*
X21590000Y-87780000D01*
X21590000Y-89280000D02*
G75*
G02*
X21590000Y-98280000I0J-4500000D01*
G01*
X21590000Y-100780000D02*
X21590000Y-98280000D01*
X21590000Y-107780000D02*
X21590000Y-100780000D01*
X29590000Y-107780000D02*
X21590000Y-107780000D01*
X29878000Y-107780000D02*
X29590000Y-107780000D01*
X29878000Y-117780000D02*
X29878000Y-107780000D01*
D10*
X35776000Y-37324000D02*
X35795000Y-18020000D01*
X35795000Y-18020000D02*
X35795000Y-17780000D01*
D11*
X61590000Y-17780000D02*
X35795000Y-17780000D01*
X61590000Y-17780000D02*
X87703000Y-17780000D01*
D10*
X77705000Y-22604000D02*
X87703000Y-22604000D01*
X77705000Y-36804000D02*
X77705000Y-22604000D01*
X87703000Y-22604000D02*
X87703000Y-17780000D01*
X87703000Y-36804000D02*
X77705000Y-36804000D01*
D11*
X93251000Y-107780000D02*
X93590000Y-107780000D01*
X93251000Y-117780000D02*
X29878000Y-117780000D01*
X93251000Y-117780000D02*
X93251000Y-107780000D01*
X93590000Y-107780000D02*
X101590000Y-107780000D01*
D10*
X101590000Y-37080000D02*
X87703000Y-36804000D01*
D11*
X101590000Y-39280000D02*
X101590000Y-37080000D01*
X101590000Y-48280000D02*
G75*
G02*
X101590000Y-39280000I0J4500000D01*
G01*
X101590000Y-48380000D02*
X101590000Y-48280000D01*
X101590000Y-48380000D02*
X101590000Y-51480000D01*
X101590001Y-57080001D02*
X101590000Y-51480000D01*
X101590001Y-57080001D02*
X101590001Y-68480000D01*
X101590000Y-74092000D02*
X101590001Y-68480000D01*
X101590000Y-83680000D02*
X101590000Y-74092000D01*
X101590000Y-89280000D02*
X101590000Y-83680000D01*
X101590000Y-98280000D02*
G75*
G02*
X101590000Y-89280000I0J4500000D01*
G01*
X101590000Y-100780000D02*
X101590000Y-98280000D01*
X101590000Y-107780000D02*
X101590000Y-100780000D01*
M02*
