M48
; DRILL file KiCad 10.0.3 date 2026-08-21T19:47:59
; FORMAT={-:-/ absolute / metric / decimal}
; #@! TF.CreationDate,2026-08-21T19:47:59+02:00
; #@! TF.GenerationSoftware,Kicad,Pcbnew,10.0.3
; #@! TF.FileFunction,Plated,1,2,PTH
FMAT,2
METRIC
; #@! TA.AperFunction,Plated,PTH,ViaDrill
T1C0.400
; #@! TA.AperFunction,Plated,PTH,ComponentDrill
T2C1.000
%
G90
G05
T1
X26.143Y-74.662
X26.143Y-86.6
X27.159Y-60.184
X27.413Y-91.426
X33.917Y-67.006
X35.16Y-78.726
X35.287Y-69.582
X36.013Y-62.157
X36.013Y-84.895
X36.43Y-98.03
X37.0Y-73.9
X37.0Y-78.218
X37.7Y-58.025
X37.7Y-82.155
X37.7Y-97.395
X38.842Y-21.575
X38.97Y-58.025
X38.97Y-82.155
X38.97Y-97.395
X38.97Y-101.84
X39.084Y-49.864
X40.24Y-82.155
X40.24Y-97.395
X41.22Y-47.845
X41.51Y-82.155
X41.51Y-97.395
X41.51Y-99.935
X41.521Y-22.046
X42.78Y-58.025
X42.78Y-82.155
X42.78Y-97.395
X42.907Y-44.69
X43.777Y-22.415
X43.779Y-23.5
X44.05Y-58.025
X44.05Y-67.55
X44.05Y-68.82
X44.05Y-82.155
X44.05Y-97.395
X44.05Y-99.935
X44.427Y-59.345
X44.431Y-42.658
X45.32Y-69.455
X45.32Y-82.155
X45.32Y-97.395
X45.486Y-44.236
X46.463Y-77.202
X46.59Y-69.455
X46.59Y-78.28
X46.59Y-82.155
X46.59Y-97.395
X46.59Y-99.3
X47.816Y-22.248
X47.86Y-86.6
X47.93Y-65.195
X48.366Y-53.08
X48.747Y-54.082
X48.97Y-21.583
X49.003Y-42.658
X49.12Y-67.018
X49.447Y-70.787
X49.831Y-90.222
X50.295Y-62.883
X50.4Y-75.805
X50.9Y-32.034
X51.069Y-72.081
X51.664Y-31.142
X51.837Y-84.022
X52.564Y-72.166
X52.564Y-33.096
X53.012Y-64.696
X53.289Y-44.324
X53.439Y-83.527
X53.575Y-101.205
X53.642Y-72.63
X54.224Y-63.857
X54.233Y-25.773
X54.591Y-45.452
X54.718Y-48.373
X54.817Y-82.758
X55.197Y-32.344
X55.353Y-25.64
X55.48Y-85.33
X55.48Y-90.73
X55.549Y-71.368
X55.839Y-54.625
X55.997Y-66.925
X56.75Y-82.155
X56.75Y-94.22
X56.827Y-65.92
X57.619Y-44.324
X58.02Y-99.3
X59.86Y-94.22
X59.925Y-61.265
X59.925Y-90.73
X60.133Y-69.408
X60.51Y-83.679
X60.56Y-59.865
X60.941Y-70.652
X61.131Y-68.248
X61.195Y-65.01
X61.26Y-94.22
X61.443Y-56.417
X61.74Y-84.289
X61.83Y-101.205
X61.997Y-65.662
X62.465Y-54.625
X62.465Y-56.12
X62.465Y-80.885
X62.465Y-99.3
X63.1Y-65.71
X63.735Y-101.84
X66.553Y-60.838
X66.91Y-85.33
X66.91Y-90.73
X66.944Y-22.993
X67.545Y-101.84
X67.62Y-26.964
X68.053Y-25.64
X69.163Y-43.46
X69.229Y-69.545
X69.45Y-101.84
X69.86Y-24.483
X69.905Y-42.133
X70.63Y-43.833
X70.63Y-50.555
X70.653Y-25.106
X70.677Y-26.255
X72.117Y-48.246
X72.625Y-45.325
X73.895Y-65.645
X73.943Y-24.37
X74.149Y-92.63
X75.165Y-94.22
X75.165Y-99.935
X75.943Y-24.37
X76.435Y-85.965
X76.943Y-24.37
X77.705Y-79.742
X77.74Y-62.971
X78.975Y-87.235
X78.975Y-100.824
X79.32Y-68.114
X79.32Y-70.481
X79.394Y-43.833
X80.245Y-71.36
X80.245Y-87.235
X80.753Y-42.912
X80.753Y-45.461
X81.515Y-56.12
X81.515Y-87.235
X81.515Y-96.125
X82.15Y-52.31
X82.239Y-55.147
X82.785Y-82.155
X82.785Y-87.235
X82.785Y-96.125
X84.055Y-71.36
X84.487Y-37.803
X85.325Y-56.12
X85.325Y-65.01
X85.325Y-70.725
X85.325Y-80.885
X85.325Y-87.362
X85.79Y-85.9
X85.962Y-52.865
X86.595Y-56.12
X86.595Y-87.235
X87.165Y-75.082
X87.384Y-76.837
X88.715Y-96.825
X89.314Y-100.899
X90.283Y-86.6
X90.283Y-94.614
X92.083Y-86.346
X92.183Y-91.68
X97.263Y-76.44
T2
X67.403Y-30.288
X67.403Y-32.828
X67.403Y-35.368
M30
