%TF.GenerationSoftware,KiCad,Pcbnew,10.0.3*%
%TF.CreationDate,2026-08-21T19:47:56+02:00*%
%TF.ProjectId,p2000t-pico-web-interface,70323030-3074-42d7-9069-636f2d776562,rev3*%
%TF.SameCoordinates,Original*%
%TF.FileFunction,Soldermask,Bot*%
%TF.FilePolarity,Negative*%
%FSLAX46Y46*%
G04 Gerber Fmt 4.6, Leading zero omitted, Abs format (unit mm)*
G04 Created by KiCad (PCBNEW 10.0.3) date 2026-08-21 19:47:56*
%MOMM*%
%LPD*%
G01*
G04 APERTURE LIST*
G04 Aperture macros list*
%AMRoundRect*
0 Rectangle with rounded corners*
0 $1 Rounding radius*
0 $2 $3 $4 $5 $6 $7 $8 $9 X,Y pos of 4 corners*
0 Add a 4 corners polygon primitive as box body*
4,1,4,$2,$3,$4,$5,$6,$7,$8,$9,$2,$3,0*
0 Add four circle primitives for the rounded corners*
1,1,$1+$1,$2,$3*
1,1,$1+$1,$4,$5*
1,1,$1+$1,$6,$7*
1,1,$1+$1,$8,$9*
0 Add four rect primitives between the rounded corners*
20,1,$1+$1,$2,$3,$4,$5,0*
20,1,$1+$1,$4,$5,$6,$7,0*
20,1,$1+$1,$6,$7,$8,$9,0*
20,1,$1+$1,$8,$9,$2,$3,0*%
%AMFreePoly0*
4,1,37,0.800000,0.796148,0.878414,0.796148,1.032228,0.765552,1.177117,0.705537,1.307515,0.618408,1.418408,0.507515,1.505537,0.377117,1.565552,0.232228,1.596148,0.078414,1.596148,-0.078414,1.565552,-0.232228,1.505537,-0.377117,1.418408,-0.507515,1.307515,-0.618408,1.177117,-0.705537,1.032228,-0.765552,0.878414,-0.796148,0.800000,-0.796148,0.800000,-0.800000,-1.400000,-0.800000,
-1.403843,-0.796157,-1.439018,-0.796157,-1.511114,-0.766294,-1.566294,-0.711114,-1.596157,-0.639018,-1.596157,-0.603843,-1.600000,-0.600000,-1.600000,0.600000,-1.596157,0.603843,-1.596157,0.639018,-1.566294,0.711114,-1.511114,0.766294,-1.439018,0.796157,-1.403843,0.796157,-1.400000,0.800000,0.800000,0.800000,0.800000,0.796148,0.800000,0.796148,$1*%
%AMFreePoly1*
4,1,37,1.403843,0.796157,1.439018,0.796157,1.511114,0.766294,1.566294,0.711114,1.596157,0.639018,1.596157,0.603843,1.600000,0.600000,1.600000,-0.600000,1.596157,-0.603843,1.596157,-0.639018,1.566294,-0.711114,1.511114,-0.766294,1.439018,-0.796157,1.403843,-0.796157,1.400000,-0.800000,-0.800000,-0.800000,-0.800000,-0.796148,-0.878414,-0.796148,-1.032228,-0.765552,-1.177117,-0.705537,
-1.307515,-0.618408,-1.418408,-0.507515,-1.505537,-0.377117,-1.565552,-0.232228,-1.596148,-0.078414,-1.596148,0.078414,-1.565552,0.232228,-1.505537,0.377117,-1.418408,0.507515,-1.307515,0.618408,-1.177117,0.705537,-1.032228,0.765552,-0.878414,0.796148,-0.800000,0.796148,-0.800000,0.800000,1.400000,0.800000,1.403843,0.796157,1.403843,0.796157,$1*%
G04 Aperture macros list end*
%ADD10C,0.100000*%
%ADD11R,2.000000X10.000000*%
%ADD12RoundRect,0.250000X0.475000X-0.250000X0.475000X0.250000X-0.475000X0.250000X-0.475000X-0.250000X0*%
%ADD13RoundRect,0.150000X-0.150000X0.875000X-0.150000X-0.875000X0.150000X-0.875000X0.150000X0.875000X0*%
%ADD14RoundRect,0.250000X0.325000X0.650000X-0.325000X0.650000X-0.325000X-0.650000X0.325000X-0.650000X0*%
%ADD15C,2.200000*%
%ADD16C,1.850000*%
%ADD17FreePoly0,270.000000*%
%ADD18RoundRect,0.800000X-0.000010X0.800000X-0.000010X-0.800000X0.000010X-0.800000X0.000010X0.800000X0*%
%ADD19FreePoly1,270.000000*%
%ADD20RoundRect,0.200000X-0.600000X0.600000X-0.600000X-0.600000X0.600000X-0.600000X0.600000X0.600000X0*%
%ADD21C,1.600000*%
%ADD22RoundRect,0.150000X-0.150000X0.825000X-0.150000X-0.825000X0.150000X-0.825000X0.150000X0.825000X0*%
%ADD23RoundRect,0.150000X-0.150000X0.725000X-0.150000X-0.725000X0.150000X-0.725000X0.150000X0.725000X0*%
%ADD24RoundRect,0.250000X-0.325000X-0.650000X0.325000X-0.650000X0.325000X0.650000X-0.325000X0.650000X0*%
G04 APERTURE END LIST*
%TO.C,J1*%
D10*
X29594000Y-107810000D02*
X93594000Y-107810000D01*
X93594000Y-117810000D01*
X29594000Y-117810000D01*
X29594000Y-107810000D01*
G36*
X29594000Y-107810000D02*
G01*
X93594000Y-107810000D01*
X93594000Y-117810000D01*
X29594000Y-117810000D01*
X29594000Y-107810000D01*
G37*
%TD*%
D11*
%TO.C,J1*%
X89314000Y-112810000D03*
X77434000Y-112810000D03*
X73474000Y-112810000D03*
X69514000Y-112810000D03*
X65554000Y-112810000D03*
X61594000Y-112810000D03*
X57634000Y-112810000D03*
X53674000Y-112810000D03*
X49714000Y-112810000D03*
X45754000Y-112810000D03*
X41794000Y-112810000D03*
X37834000Y-112810000D03*
X33874000Y-112810000D03*
%TD*%
D12*
%TO.C,C8*%
X54718000Y-59615000D03*
X54718000Y-61515000D03*
%TD*%
D13*
%TO.C,U8*%
X55480000Y-87030000D03*
X56750000Y-87030000D03*
X58020000Y-87030000D03*
X59290000Y-87030000D03*
X60560000Y-87030000D03*
X61830000Y-87030000D03*
X63100000Y-87030000D03*
X64370000Y-87030000D03*
X65640000Y-87030000D03*
X66910000Y-87030000D03*
X66910000Y-96330000D03*
X65640000Y-96330000D03*
X64370000Y-96330000D03*
X63100000Y-96330000D03*
X61830000Y-96330000D03*
X60560000Y-96330000D03*
X59290000Y-96330000D03*
X58020000Y-96330000D03*
X56750000Y-96330000D03*
X55480000Y-96330000D03*
%TD*%
D14*
%TO.C,C4*%
X47225000Y-44690000D03*
X44275000Y-44690000D03*
%TD*%
D15*
%TO.C,A1*%
X37703000Y-26979000D03*
D16*
X40733000Y-27279000D03*
X40733000Y-32129000D03*
D15*
X37703000Y-32429000D03*
D17*
X37573000Y-20014000D03*
D18*
X40113000Y-20014000D03*
D19*
X42653000Y-20014000D03*
D18*
X45193000Y-20014000D03*
X47733000Y-20014000D03*
X50273000Y-20014000D03*
X52813000Y-20014000D03*
D19*
X55353000Y-20014000D03*
D18*
X57893000Y-20014000D03*
X60433000Y-20014000D03*
X62973000Y-20014000D03*
X65513000Y-20014000D03*
D19*
X68053000Y-20014000D03*
D18*
X70593000Y-20014000D03*
X73133000Y-20014000D03*
X75673000Y-20014000D03*
X78213000Y-20014000D03*
D19*
X80753000Y-20014000D03*
D18*
X83293000Y-20014000D03*
X85833000Y-20014000D03*
X85833000Y-39394000D03*
X83293000Y-39394000D03*
D17*
X80753000Y-39394000D03*
D18*
X78213000Y-39394000D03*
X75673000Y-39394000D03*
X73133000Y-39394000D03*
X70593000Y-39394000D03*
D17*
X68053000Y-39394000D03*
D18*
X65513000Y-39394000D03*
X62973000Y-39394000D03*
X60433000Y-39394000D03*
X57893000Y-39394000D03*
D17*
X55353000Y-39394000D03*
D18*
X52813000Y-39394000D03*
X50273000Y-39394000D03*
X47733000Y-39394000D03*
X45193000Y-39394000D03*
D17*
X42653000Y-39394000D03*
D18*
X40113000Y-39394000D03*
X37573000Y-39394000D03*
D20*
X67403000Y-30288100D03*
D21*
X67403000Y-32828100D03*
X67403000Y-35368100D03*
%TD*%
D13*
%TO.C,U3*%
X35160000Y-86522000D03*
X36430000Y-86522000D03*
X37700000Y-86522000D03*
X38970000Y-86522000D03*
X40240000Y-86522000D03*
X41510000Y-86522000D03*
X42780000Y-86522000D03*
X44050000Y-86522000D03*
X45320000Y-86522000D03*
X46590000Y-86522000D03*
X46590000Y-95822000D03*
X45320000Y-95822000D03*
X44050000Y-95822000D03*
X42780000Y-95822000D03*
X41510000Y-95822000D03*
X40240000Y-95822000D03*
X38970000Y-95822000D03*
X37700000Y-95822000D03*
X36430000Y-95822000D03*
X35160000Y-95822000D03*
%TD*%
D12*
%TO.C,C6*%
X32620000Y-76882000D03*
X32620000Y-74982000D03*
%TD*%
D22*
%TO.C,U5*%
X57258000Y-58090000D03*
X58528000Y-58090000D03*
X59798000Y-58090000D03*
X61068000Y-58090000D03*
X62338000Y-58090000D03*
X63608000Y-58090000D03*
X64878000Y-58090000D03*
X64878000Y-63040000D03*
X63608000Y-63040000D03*
X62338000Y-63040000D03*
X61068000Y-63040000D03*
X59798000Y-63040000D03*
X58528000Y-63040000D03*
X57258000Y-63040000D03*
%TD*%
D12*
%TO.C,C1*%
X32620000Y-62150000D03*
X32620000Y-60250000D03*
%TD*%
D13*
%TO.C,U1*%
X35160000Y-56345000D03*
X36430000Y-56345000D03*
X37700000Y-56345000D03*
X38970000Y-56345000D03*
X40240000Y-56345000D03*
X41510000Y-56345000D03*
X42780000Y-56345000D03*
X44050000Y-56345000D03*
X45320000Y-56345000D03*
X46590000Y-56345000D03*
X46590000Y-65645000D03*
X45320000Y-65645000D03*
X44050000Y-65645000D03*
X42780000Y-65645000D03*
X41510000Y-65645000D03*
X40240000Y-65645000D03*
X38970000Y-65645000D03*
X37700000Y-65645000D03*
X36430000Y-65645000D03*
X35160000Y-65645000D03*
%TD*%
D12*
%TO.C,C3*%
X76435000Y-92630000D03*
X76435000Y-90730000D03*
%TD*%
D23*
%TO.C,U9*%
X78975000Y-89070000D03*
X80245000Y-89070000D03*
X81515000Y-89070000D03*
X82785000Y-89070000D03*
X84055000Y-89070000D03*
X85325000Y-89070000D03*
X86595000Y-89070000D03*
X87865000Y-89070000D03*
X87865000Y-94220000D03*
X86595000Y-94220000D03*
X85325000Y-94220000D03*
X84055000Y-94220000D03*
X82785000Y-94220000D03*
X81515000Y-94220000D03*
X80245000Y-94220000D03*
X78975000Y-94220000D03*
%TD*%
D22*
%TO.C,U7*%
X80245000Y-73387600D03*
X81515000Y-73387600D03*
X82785000Y-73387600D03*
X84055000Y-73387600D03*
X85325000Y-73387600D03*
X86595000Y-73387600D03*
X87865000Y-73387600D03*
X87865000Y-78337600D03*
X86595000Y-78337600D03*
X85325000Y-78337600D03*
X84055000Y-78337600D03*
X82785000Y-78337600D03*
X81515000Y-78337600D03*
X80245000Y-78337600D03*
%TD*%
D12*
%TO.C,C7*%
X77705000Y-61515000D03*
X77705000Y-59615000D03*
%TD*%
D24*
%TO.C,C5*%
X38335000Y-44690000D03*
X41285000Y-44690000D03*
%TD*%
D13*
%TO.C,U2*%
X35160000Y-71282000D03*
X36430000Y-71282000D03*
X37700000Y-71282000D03*
X38970000Y-71282000D03*
X40240000Y-71282000D03*
X41510000Y-71282000D03*
X42780000Y-71282000D03*
X44050000Y-71282000D03*
X45320000Y-71282000D03*
X46590000Y-71282000D03*
X46590000Y-80582000D03*
X45320000Y-80582000D03*
X44050000Y-80582000D03*
X42780000Y-80582000D03*
X41510000Y-80582000D03*
X40240000Y-80582000D03*
X38970000Y-80582000D03*
X37700000Y-80582000D03*
X36430000Y-80582000D03*
X35160000Y-80582000D03*
%TD*%
D22*
%TO.C,U6*%
X80245000Y-58090000D03*
X81515000Y-58090000D03*
X82785000Y-58090000D03*
X84055000Y-58090000D03*
X85325000Y-58090000D03*
X86595000Y-58090000D03*
X87865000Y-58090000D03*
X87865000Y-63040000D03*
X86595000Y-63040000D03*
X85325000Y-63040000D03*
X84055000Y-63040000D03*
X82785000Y-63040000D03*
X81515000Y-63040000D03*
X80245000Y-63040000D03*
%TD*%
D12*
%TO.C,C9*%
X52940000Y-92630000D03*
X52940000Y-90730000D03*
%TD*%
%TO.C,C10*%
X32620000Y-92122000D03*
X32620000Y-90222000D03*
%TD*%
%TO.C,C2*%
X77705000Y-76755000D03*
X77705000Y-74855000D03*
%TD*%
M02*
